{
  "accessors": [
    {
      "bufferView": 3,
      "componentType": 5126,
      "count": 147,
      "max": [
        11.818052291870117,
        13.209750175476074,
        -0.6527309417724609
      ],
      "min": [
        -10.895456314086914,
        1.616292119026184,
        -9.141426086425781
      ],
      "type": "VEC3"
    },
    {
      "bufferView": 3,
      "byteOffset": 1764,
      "componentType": 5126,
      "count": 147,
      "max": [
        0.6935365796089172,
        0.9802978038787842,
        0.9995166659355164
      ],
      "min": [
        -0.8198145031929016,
        -0.9990352988243103,
        -1.0
      ],
      "type": "VEC3"
    },
    {
      "bufferView": 4,
      "componentType": 5126,
      "count": 147,
      "max": [
        0.8765705227851868,
        0.9995507001876831,
        0.9995554685592651,
        1.0
      ],
      "min": [
        -0.9992967247962952,
        -0.17423444986343384,
        -0.9999296069145203,
        1.0
      ],
      "type": "VEC4"
    },
    {
      "bufferView": 2,
      "componentType": 5126,
      "count": 147,
      "max": [
        0.9980080127716064,
        0.9958487749099731
      ],
      "min": [
        0.0019920319318771362,
        0.0019876956939697266
      ],
      "type": "VEC2"
    },
    {
      "bufferView": 1,
      "componentType": 5125,
      "count": 585,
      "type": "SCALAR"
    },
    {
      "bufferView": 5,
      "componentType": 5126,
      "count": 11,
      "max": [
        1.0,
        0.007124344352632761,
        0.39144134521484375,
        0.0,
        0.11771605163812637,
        1.0,
        7.52092683378898e-14,
        0.0,
        0.31442898511886597,
        6.041059986234762e-14,
        1.0,
        0.0,
        5.964459419250488,
        5.044982433319092,
        5.952983856201172,
        1.0
      ],
      "min": [
        -0.8406726717948914,
        -0.11771605163812637,
        -0.39144134521484375,
        0.0,
        -0.007124344352632761,
        -0.8407028317451477,
        -4.834971596407178e-17,
        0.0,
        0.0,
        -2.9286580326563125e-19,
        0.5976353287696838,
        0.0,
        -9.93426513671875,
        -6.715340614318848,
        0.0,
        1.0
      ],
      "type": "MAT4"
    },
    {
      "bufferView": 0,
      "componentType": 5123,
      "count": 147,
      "type": "VEC4"
    },
    {
      "bufferView": 4,
      "byteOffset": 2352,
      "componentType": 5126,
      "count": 147,
      "max": [
        1.0,
        0.4985361397266388,
        0.24122212827205658,
        0.13835366070270538
      ],
      "min": [
        0.34762048721313477,
        0.0,
        0.0,
        0.0
      ],
      "type": "VEC4"
    },
    {
      "bufferView": 6,
      "componentType": 5126,
      "count": 57,
      "max": [
        1.9166666269302368
      ],
      "min": [
        0.0416666679084301
      ],
      "type": "SCALAR"
    },
    {
      "bufferView": 7,
      "componentType": 5126,
      "count": 57,
      "max": [
        2.172153949737549,
        1.7763568394002505e-15,
        8.881784197001252e-16
      ],
      "min": [
        2.172153949737549,
        0.0,
        -8.881784197001252e-16
      ],
      "type": "VEC3"
    },
    {
      "bufferView": 6,
      "byteOffset": 228,
      "componentType": 5126,
      "count": 62,
      "max": [
        1.9166666269302368
      ],
      "min": [
        0.0416666679084301
      ],
      "type": "SCALAR"
    },
    {
      "bufferView": 8,
      "componentType": 5126,
      "count": 62,
      "max": [
        0.009838707745075226,
        0.12794682383537292,
        0.062387436628341675,
        0.9980283975601196
      ],
      "min": [
        -0.007998043671250343,
        -0.15739242732524872,
        0.06160824000835419,
        0.9855633974075317
      ],
      "type": "VEC4"
    },
    {
      "bufferView": 6,
      "byteOffset": 476,
      "componentType": 5126,
      "count": 62,
      "max": [
        1.9166666269302368
      ],
      "min": [
        0.0416666679084301
      ],
      "type": "SCALAR"
    },
    {
      "bufferView": 7,
      "byteOffset": 684,
      "componentType": 5126,
      "count": 62,
      "max": [
        2.7827327251434326,
        -3.552713678800501e-15,
        8.881784197001252e-16
      ],
      "min": [
        2.7827327251434326,
        -7.105427357601002e-15,
        -8.881784197001252e-16
      ],
      "type": "VEC3"
    },
    {
      "bufferView": 6,
      "byteOffset": 724,
      "componentType": 5126,
      "count": 62,
      "max": [
        1.9166666269302368
      ],
      "min": [
        0.0416666679084301
      ],
      "type": "SCALAR"
    },
    {
      "bufferView": 8,
      "byteOffset": 992,
      "componentType": 5126,
      "count": 62,
      "max": [
        0.0007469491101801395,
        0.1181950494647026,
        0.007811666000634432,
        0.9999542832374573
      ],
      "min": [
        -0.0009233424789272249,
        -0.09561531990766525,
        0.00775702390819788,
        0.9929596781730652
      ],
      "type": "VEC4"
    },
    {
      "bufferView": 6,
      "byteOffset": 972,
      "componentType": 5126,
      "count": 86,
      "max": [
        2.7083332538604736
      ],
      "min": [
        0.0416666679084301
      ],
      "type": "SCALAR"
    },
    {
      "bufferView": 7,
      "byteOffset": 1428,
      "componentType": 5126,
      "count": 86,
      "max": [
        3.6350889205932617,
        8.881784197001252e-16,
        1.3322676295501878e-15
      ],
      "min": [
        3.6350889205932617,
        -8.881784197001252e-16,
        -8.881784197001252e-16
      ],
      "type": "VEC3"
    },
    {
      "bufferView": 6,
      "byteOffset": 1316,
      "componentType": 5126,
      "count": 88,
      "max": [
        2.7083332538604736
      ],
      "min": [
        0.0416666679084301
      ],
      "type": "SCALAR"
    },
    {
      "bufferView": 8,
      "byteOffset": 1984,
      "componentType": 5126,
      "count": 88,
      "max": [
        0.002241282956674695,
        0.0942511186003685,
        -0.023131711408495903,
        0.9997289180755615
      ],
      "min": [
        -0.003151307115331292,
        -0.13494953513145447,
        -0.023329783231019974,
        0.9905773997306824
      ],
      "type": "VEC4"
    },
    {
      "bufferView": 6,
      "byteOffset": 1668,
      "componentType": 5126,
      "count": 87,
      "max": [
        2.7083332538604736
      ],
      "min": [
        0.0416666679084301
      ],
      "type": "SCALAR"
    },
    {
      "bufferView": 8,
      "byteOffset": 3392,
      "componentType": 5126,
      "count": 87,
      "max": [
        0.0034577653277665377,
        0.1824769228696823,
        0.019109133630990982,
        0.9998164176940918
      ],
      "min": [
        -0.0034876163117587566,
        -0.18091508746147156,
        0.01878819428384304,
        0.9830244183540344
      ],
      "type": "VEC4"
    },
    {
      "bufferView": 6,
      "byteOffset": 2016,
      "componentType": 5126,
      "count": 94,
      "max": [
        2.7083332538604736
      ],
      "min": [
        0.0416666679084301
      ],
      "type": "SCALAR"
    },
    {
      "bufferView": 7,
      "byteOffset": 2460,
      "componentType": 5126,
      "count": 94,
      "max": [
        2.4761316776275635,
        0.10411970317363739,
        1.485103964805603
      ],
      "min": [
        2.035609722137451,
        0.10411970317363739,
        -0.7888830304145813
      ],
      "type": "VEC3"
    },
    {
      "bufferView": 6,
      "byteOffset": 2392,
      "componentType": 5126,
      "count": 94,
      "max": [
        2.7083332538604736
      ],
      "min": [
        0.0416666679084301
      ],
      "type": "SCALAR"
    },
    {
      "bufferView": 7,
      "byteOffset": 3588,
      "componentType": 5126,
      "count": 94,
      "max": [
        -2.2251477241516113,
        -0.4450930953025818,
        0.8184813261032104
      ],
      "min": [
        -2.7119979858398438,
        -0.4450930953025818,
        -1.8138262033462524
      ],
      "type": "VEC3"
    }
  ],
  "animations": [
    {
      "channels": [
        {
          "sampler": 0,
          "target": {
            "node": 12,
            "path": "translation"
          }
        },
        {
          "sampler": 1,
          "target": {
            "node": 12,
            "path": "rotation"
          }
        },
        {
          "sampler": 2,
          "target": {
            "node": 11,
            "path": "translation"
          }
        },
        {
          "sampler": 3,
          "target": {
            "node": 11,
            "path": "rotation"
          }
        },
        {
          "sampler": 4,
          "target": {
            "node": 10,
            "path": "translation"
          }
        },
        {
          "sampler": 5,
          "target": {
            "node": 10,
            "path": "rotation"
          }
        },
        {
          "sampler": 6,
          "target": {
            "node": 9,
            "path": "rotation"
          }
        },
        {
          "sampler": 7,
          "target": {
            "node": 15,
            "path": "translation"
          }
        },
        {
          "sampler": 8,
          "target": {
            "node": 17,
            "path": "translation"
          }
        }
      ],
      "name": "Take 001",
      "samplers": [
        {
          "input": 8,
          "interpolation": "LINEAR",
          "output": 9
        },
        {
          "input": 10,
          "interpolation": "LINEAR",
          "output": 11
        },
        {
          "input": 12,
          "interpolation": "LINEAR",
          "output": 13
        },
        {
          "input": 14,
          "interpolation": "LINEAR",
          "output": 15
        },
        {
          "input": 16,
          "interpolation": "LINEAR",
          "output": 17
        },
        {
          "input": 18,
          "interpolation": "LINEAR",
          "output": 19
        },
        {
          "input": 20,
          "interpolation": "LINEAR",
          "output": 21
        },
        {
          "input": 22,
          "interpolation": "LINEAR",
          "output": 23
        },
        {
          "input": 24,
          "interpolation": "LINEAR",
          "output": 25
        }
      ]
    }
  ],
  "asset": {
    "extras": {
      "author": "misaooo (https://sketchfab.com/misaooo)",
      "license": "CC-BY-NC-4.0 (http://creativecommons.org/licenses/by-nc/4.0/)",
      "source": "https://sketchfab.com/3d-models/lownfish-68e9afcb79534dc7a2316d780994e619",
      "title": "Сlownfish"
    },
    "generator": "Sketchfab-12.67.0",
    "version": "2.0"
  },
  "bufferViews": [
    {
      "buffer": 0,
      "byteLength": 1176,
      "byteStride": 8,
      "name": "shortBufferViews",
      "target": 34962
    },
    {
      "buffer": 0,
      "byteLength": 2340,
      "byteOffset": 1176,
      "name": "floatBufferViews",
      "target": 34963
    },
    {
      "buffer": 0,
      "byteLength": 1176,
      "byteOffset": 3516,
      "byteStride": 8,
      "name": "floatBufferViews",
      "target": 34962
    },
    {
      "buffer": 0,
      "byteLength": 3528,
      "byteOffset": 4692,
      "byteStride": 12,
      "name": "floatBufferViews",
      "target": 34962
    },
    {
      "buffer": 0,
      "byteLength": 4704,
      "byteOffset": 8220,
      "byteStride": 16,
      "name": "floatBufferViews",
      "target": 34962
    },
    {
      "buffer": 0,
      "byteLength": 704,
      "byteOffset": 12924,
      "name": "floatBufferViews"
    },
    {
      "buffer": 0,
      "byteLength": 2768,
      "byteOffset": 13628,
      "name": "floatBufferViews"
    },
    {
      "buffer": 0,
      "byteLength": 4716,
      "byteOffset": 16396,
      "byteStride": 12,
      "name": "floatBufferViews"
    },
    {
      "buffer": 0,
      "byteLength": 4784,
      "byteOffset": 21112,
      "byteStride": 16,
      "name": "floatBufferViews"
    }
  ],
  "buffers": [
    {
      "byteLength": 25896,
      "uri": "scene.bin"
    }
  ],
  "images": [
    {
      "uri": "textures/lambert1_baseColor.png"
    },
    {
      "uri": "textures/lambert1_metallicRoughness.png"
    },
    {
      "uri": "textures/lambert1_normal.png"
    }
  ],
  "materials": [
    {
      "alphaCutoff": 0.6663490853658537,
      "alphaMode": "MASK",
      "doubleSided": true,
      "name": "lambert1",
      "normalTexture": {
        "index": 2
      },
      "pbrMetallicRoughness": {
        "baseColorTexture": {
          "index": 0
        },
        "metallicRoughnessTexture": {
          "index": 1
        }
      }
    }
  ],
  "meshes": [
    {
      "name": "pPlane1_lambert1_0",
      "primitives": [
        {
          "attributes": {
            "JOINTS_0": 6,
            "NORMAL": 1,
            "POSITION": 0,
            "TANGENT": 2,
            "TEXCOORD_0": 3,
            "WEIGHTS_0": 7
          },
          "indices": 4,
          "material": 0,
          "mode": 4
        }
      ]
    }
  ],
  "nodes": [
    {
      "children": [
        1
      ],
      "matrix": [
        1.0,
        0.0,
        0.0,
        0.0,
        0.0,
        2.220446049250313e-16,
        -1.0,
        0.0,
        0.0,
        1.0,
        2.220446049250313e-16,
        0.0,
        0.0,
        0.0,
        0.0,
        1.0
      ],
      "name": "Sketchfab_model"
    },
    {
      "children": [
        2
      ],
      "matrix": [
        1.0,
        0.0,
        0.0,
        0.0,
        0.0,
        0.0,
        1.0,
        0.0,
        0.0,
        -1.0,
        0.0,
        0.0,
        0.0,
        0.0,
        0.0,
        1.0
      ],
      "name": "e01981247a2445289a77436d00fac20d.fbx"
    },
    {
      "children": [
        3
      ],
      "name": "Object_2"
    },
    {
      "children": [
        4
      ],
      "name": "RootNode"
    },
    {
      "children": [
        5,
        7,
        6,
        18
      ],
      "name": "Object_4"
    },
    {
      "children": [
        8
      ],
      "name": "_rootJoint"
    },
    {
      "matrix": [
        0.8398367580450132,
        -0.038150838342824095,
        0.0,
        0.0,
        0.038150838342824095,
        0.8398367580450132,
        0.0,
        0.0,
        0.0,
        0.0,
        0.6753025569594089,
        0.0,
        -7.516337065415453,
        6.857347955973657,
        -2.838602820836939,
        1.0
      ],
      "name": "Object_6"
    },
    {
      "mesh": 0,
      "name": "Object_7",
      "skin": 0
    },
    {
      "children": [
        9,
        14,
        16
      ],
      "name": "joint1_00",
      "rotation": [
        0.0,
        0.0,
        0.0042371745221316814,
        0.9999911189079285
      ],
      "translation": [
        -6.015543460845947,
        6.002689838409424,
        -3.379441022872925
      ]
    },
    {
      "children": [
        10
      ],
      "name": "joint2_02",
      "rotation": [
        0.001249904977157712,
        -0.06539677083492279,
        0.01906823180615902,
        0.9976763725280762
      ],
      "translation": [
        4.004563808441162,
        4.973799150320701e-14,
        0.0
      ]
    },
    {
      "children": [
        11
      ],
      "name": "joint3_03",
      "rotation": [
        -0.0023103610146790743,
        -0.09893740713596344,
        -0.02323077991604805,
        0.9948198795318604
      ],
      "translation": [
        3.6350889205932617,
        0.0,
        0.0
      ]
    },
    {
      "children": [
        12
      ],
      "name": "joint4_04",
      "rotation": [
        -0.0006673732423223555,
        0.08542899042367935,
        0.007783225271850824,
        0.9963136315345764
      ],
      "translation": [
        2.7827327251434326,
        -4.440892098500626e-15,
        0.0
      ]
    },
    {
      "children": [
        13
      ],
      "name": "joint5_05",
      "rotation": [
        -0.007998043671250343,
        0.12794683873653412,
        0.06187412142753601,
        0.9898167848587036
      ],
      "translation": [
        2.172153949737549,
        8.881784197001252e-16,
        -4.440892098500626e-16
      ]
    },
    {
      "name": "joint6_06",
      "rotation": [
        7.408779641132264e-18,
        6.434786877560262e-18,
        -0.07018356770277023,
        0.9975340962409973
      ],
      "translation": [
        3.3930673599243164,
        1.7763568394002505e-15,
        0.0
      ]
    },
    {
      "children": [
        15
      ],
      "name": "joint7_07",
      "rotation": [
        -0.0010160874808207154,
        -0.23980094492435455,
        -0.004113540053367615,
        0.9708128571510315
      ],
      "translation": [
        1.7718369960784912,
        -1.0883880853652954,
        1.1192923784255981
      ]
    },
    {
      "name": "joint8_08",
      "rotation": [
        0.0010160874808207154,
        0.23980094492435455,
        0.004113540053367615,
        0.9708128571510315
      ],
      "translation": [
        2.4758763313293457,
        0.10411970317363739,
        1.4837859869003296
      ]
    },
    {
      "children": [
        17
      ],
      "name": "joint9_09",
      "rotation": [
        0.23980094492435455,
        -0.0010160874808207154,
        0.9708128571510315,
        0.004113540053367615
      ],
      "translation": [
        1.7718340158462524,
        -1.0883839130401611,
        -1.1192890405654907
      ]
    },
    {
      "name": "joint10_01",
      "rotation": [
        0.0010160874808207154,
        0.23980094492435455,
        0.004113540053367615,
        0.9708128571510315
      ],
      "translation": [
        -2.7117156982421875,
        -0.4450930953025818,
        -1.8123005628585815
      ]
    },
    {
      "name": "pPlane1",
      "rotation": [
        0.0,
        -0.0,
        -0.022695694118738174,
        0.9997424483299255
      ],
      "scale": [
        0.8407028317451477,
        0.8407028317451477,
        0.6753025650978088
      ],
      "translation": [
        -7.516336917877197,
        6.8573479652404785,
        -2.8386027812957764
      ]
    }
  ],
  "samplers": [
    {
      "magFilter": 9729,
      "minFilter": 9987,
      "wrapS": 10497,
      "wrapT": 10497
    }
  ],
  "scene": 0,
  "scenes": [
    {
      "name": "Sketchfab_Scene",
      "nodes": [
        0
      ]
    }
  ],
  "skins": [
    {
      "inverseBindMatrices": 5,
      "joints": [
        5,
        8,
        9,
        10,
        11,
        12,
        13,
        14,
        15,
        16,
        17
      ],
      "skeleton": 5
    }
  ],
  "textures": [
    {
      "sampler": 0,
      "source": 0
    },
    {
      "sampler": 0,
      "source": 1
    },
    {
      "sampler": 0,
      "source": 2
    }
  ]
}
